# xmcd CD database file
#
# Track frame offsets:
#	150
#	19566
#	35630
#	58416
#	75032
#	95594
#	118766
#	137726
#	158768
#	173935
#	192814
#	213184
#	230909
#	246941
#	261696
#	277713
#	297495
#	315451
#
# Disc length: 4469 seconds
#
# Revision: 0
# Processed by: cddbd v1.5.2PL0 Copyright (c) Steve Scherf et al.
# Submitted via: jetAudio 7
#
DISCID=04117312
DTITLE=Chris de Burgh - The Very Best Of Chris de Burgh
DYEAR=1900
DGENRE=Ballad
TTITLE0=The Lady In Red
TTITLE1=Diamond In The Dark
TTITLE2=Sailing Away
TTITLE3=Separate Tables
TTITLE4=One Word
TTITLE5=A Spaceman Came Travelling
TTITLE6=Missing You
TTITLE7=Borderline
TTITLE8=Sight and Touch
TTITLE9=The Traveller
TTITLE10=Tender Hands
TTITLE11=Don't Pay The Ferryman
TTITLE12=Moonlight And Vodka
TTITLE13=All The Love I Have Inside
TTITLE14=I Had The Love In My Eyes
TTITLE15=Carry Me (Like A Fire In Your Heart)
TTITLE16=This Waiting Heart
TTITLE17=The Simple Truth
EXTD=
EXTT0=
EXTT1=
EXTT2=
EXTT3=
EXTT4=
EXTT5=
EXTT6=
EXTT7=
EXTT8=
EXTT9=
EXTT10=
EXTT11=
EXTT12=
EXTT13=
EXTT14=
EXTT15=
EXTT16=
EXTT17=
PLAYORDER=
